<?xml version="1.0" standalone="no"?>
<!DOCTYPE svg PUBLIC "-//W3C//DTD SVG 20010904//EN"
 "http://www.w3.org/TR/2001/REC-SVG-20010904/DTD/svg10.dtd">
<svg version="1.0" xmlns="http://www.w3.org/2000/svg"
 width="380.000000pt" height="380.000000pt" viewBox="0 0 380.000000 380.000000"
 preserveAspectRatio="xMidYMid meet">
<metadata>
Created by potrace 1.11, written by Peter Selinger 2001-2013
</metadata>
<g transform="translate(0.000000,380.000000) scale(0.100000,-0.100000)"
fill="#000000" stroke="none">
<path d="M1795 3282 c-22 -14 -50 -58 -109 -173 -43 -85 -111 -217 -151 -294
-40 -77 -123 -239 -185 -360 -105 -206 -192 -375 -339 -658 -71 -137 -76 -168
-31 -214 35 -36 68 -45 107 -28 47 21 36 2 299 510 54 105 135 262 181 350 46
88 105 202 131 253 l47 93 5 -1107 5 -1106 35 -29 c39 -33 71 -36 119 -11 38
19 29 5 208 352 64 124 137 266 163 315 26 50 106 205 178 345 72 140 169 329
216 420 48 91 111 215 142 276 54 109 55 112 41 145 -28 67 -79 90 -138 64
-33 -15 -45 -31 -90 -119 -28 -55 -75 -146 -104 -201 -29 -55 -92 -176 -140
-270 -48 -93 -127 -246 -175 -340 -48 -93 -120 -233 -160 -310 -39 -77 -75
-143 -78 -147 -4 -4 -7 482 -7 1080 0 1191 2 1137 -60 1166 -43 21 -73 20
-110 -2z"/>
<path d="M2894 2109 c-39 -11 -74 -49 -79 -85 -3 -28 40 -118 163 -344 40 -74
83 -116 125 -124 16 -3 157 -6 314 -6 333 0 343 2 342 80 0 56 -21 101 -55
119 -25 14 -68 16 -285 16 l-256 0 -77 150 c-43 83 -84 158 -91 168 -17 24
-63 36 -101 26z"/>
<path d="M111 1752 c-59 -9 -92 -55 -85 -122 5 -45 52 -90 97 -91 17 0 136 -1
263 -1 l230 -1 74 -141 c40 -77 82 -151 93 -163 58 -64 178 -43 201 35 10 35
2 54 -120 282 -114 214 -91 204 -449 204 -154 1 -291 0 -304 -2z"/>
</g>
</svg>
